<svg width="120" height="28" viewBox="0 0 120 28" fill="none" xmlns="http://www.w3.org/2000/svg">
<g clip-path="url(#clip0_337_3632)">
<mask id="mask0_337_3632" style="mask-type:luminance" maskUnits="userSpaceOnUse" x="0" y="0" width="120" height="28">
<path d="M119.573 0H-1.52588e-05V28H119.573V0Z" fill="white"/>
</mask>
<g mask="url(#mask0_337_3632)">
<path d="M20.0265 0C17.8144 0 16.0212 1.79323 16.0212 4.00529C16.0212 6.21734 14.2279 8.01059 12.0159 8.01059H11.4437C9.54764 8.01059 8.01058 9.54765 8.01058 11.4437C8.01058 13.3398 6.47352 14.8768 4.57746 14.8768C2.6814 14.8768 1.14435 13.3398 1.14435 11.4437C1.14435 9.54765 2.6814 8.01059 4.57746 8.01059C6.47352 8.01059 8.01058 6.47353 8.01058 4.57748V4.00529C8.01058 1.79323 6.21733 0 4.00527 0C1.79322 0 -1.52588e-05 1.79323 -1.52588e-05 4.00529V20.0265C-1.52588e-05 22.2385 1.79322 24.0317 4.00527 24.0317C6.21733 24.0317 8.01058 22.2385 8.01058 20.0265C8.01058 17.8144 9.80377 16.0212 12.0159 16.0212C14.2279 16.0212 16.0212 17.8144 16.0212 20.0264C16.0212 22.2385 17.8144 24.0317 20.0265 24.0317C22.2385 24.0317 24.0317 22.2385 24.0317 20.0265C24.0317 17.8144 22.2385 16.0212 20.0265 16.0212C17.8144 16.0212 16.0212 14.2279 16.0212 12.0159C16.0212 9.80384 17.8144 8.01059 20.0265 8.01059C22.2385 8.01059 24.0317 6.21734 24.0317 4.0053C24.0317 1.79324 22.2385 0 20.0265 0Z" fill="url(#paint0_linear_337_3632)"/>
<path d="M36.9488 22.2895V2.31308H40.0307V10.6176H40.4872L47.935 2.31308H51.9585L42.9412 12.1586L52.2724 22.2895H48.1347L40.4872 13.8138H40.0307V22.2895H36.9488Z" fill="#FEFFFF"/>
<path d="M59.7651 22.689C58.3387 22.689 57.0927 22.3941 56.027 21.8043C54.9618 21.1955 54.1248 20.3489 53.516 19.2645C52.9266 18.161 52.6316 16.8863 52.6316 15.4404V15.0979C52.6316 13.633 52.9266 12.3583 53.516 11.2739C54.1059 10.1704 54.9239 9.32381 55.9702 8.73407C57.0354 8.12524 58.2625 7.82083 59.6511 7.82083C61.0017 7.82083 62.1815 8.12524 63.1894 8.73407C64.2167 9.32381 65.0159 10.1514 65.5864 11.2168C66.1573 12.2822 66.4428 13.5284 66.4428 14.9553V16.0682H55.6279C55.6658 17.3049 56.0748 18.2942 56.8545 19.0362C57.6537 19.7591 58.6432 20.1206 59.8224 20.1206C60.9255 20.1206 61.753 19.8732 62.3051 19.3786C62.8755 18.884 63.313 18.3132 63.6174 17.6664L66.0432 18.922C65.7767 19.4547 65.3866 20.0159 64.8729 20.6057C64.3787 21.1955 63.722 21.6901 62.9044 22.0897C62.0864 22.4892 61.0401 22.689 59.7651 22.689ZM55.6563 13.8138H63.4465C63.3703 12.7483 62.9896 11.9207 62.3051 11.331C61.62 10.7222 60.7262 10.4178 59.6227 10.4178C58.5191 10.4178 57.6158 10.7222 56.9118 11.331C56.2268 11.9207 55.8083 12.7483 55.6563 13.8138Z" fill="#FEFFFF"/>
<path d="M74.9455 22.689C73.7851 22.689 72.7105 22.4036 71.721 21.8328C70.732 21.2621 69.9329 20.444 69.3241 19.3786C68.7347 18.2942 68.4397 16.9909 68.4397 15.469V15.0409C68.4397 13.5379 68.7347 12.2442 69.3241 11.1598C69.914 10.0753 70.7036 9.24775 71.6926 8.67699C72.6821 8.10622 73.7662 7.82084 74.9455 7.82084C75.8587 7.82084 76.62 7.93499 77.2283 8.16332C77.8561 8.3916 78.3698 8.6865 78.7693 9.04796C79.1689 9.39044 79.4733 9.7519 79.6826 10.1324H80.1389V2.31308H83.0784V22.2895H80.1962V20.2918H79.7394C79.3782 20.9006 78.8266 21.4524 78.0848 21.947C77.3619 22.4417 76.3156 22.689 74.9455 22.689ZM75.773 20.1206C77.048 20.1206 78.0942 19.7116 78.9123 18.8935C79.7493 18.0754 80.1678 16.9053 80.1678 15.3833V15.1265C80.1678 13.6235 79.7588 12.463 78.9407 11.6449C78.1226 10.8268 77.0669 10.4178 75.773 10.4178C74.5175 10.4178 73.4713 10.8268 72.6342 11.6449C71.8162 12.463 71.4071 13.6235 71.4071 15.1265V15.3833C71.4071 16.9053 71.8162 18.0754 72.6342 18.8935C73.4713 19.7116 74.5175 20.1206 75.773 20.1206Z" fill="#FEFFFF"/>
<path d="M87.1194 22.2895V8.22037H90.0584V22.2895H87.1194ZM88.6031 6.30835C88.0326 6.30835 87.5474 6.12764 87.1478 5.76613C86.7676 5.38564 86.5773 4.90049 86.5773 4.31072C86.5773 3.72094 86.7676 3.24531 87.1478 2.88383C87.5474 2.50333 88.0326 2.31308 88.6031 2.31308C89.193 2.31308 89.6782 2.50333 90.0584 2.88383C90.439 3.24531 90.6293 3.72094 90.6293 4.31072C90.6293 4.90049 90.439 5.38564 90.0584 5.76613C89.6782 6.12764 89.193 6.30835 88.6031 6.30835Z" fill="#FEFFFF"/>
<path d="M96.9603 22.2895V10.7031H93.0223V8.22037H96.9603V5.13832C96.9603 4.28218 97.2168 3.59727 97.7305 3.0836C98.2442 2.56992 98.9292 2.31308 99.7852 2.31308H103.409V4.79586H100.727C100.175 4.79586 99.8993 5.08123 99.8993 5.65199V8.22037H103.951V10.7031H99.8993V22.2895H96.9603Z" fill="#FEFFFF"/>
<path d="M108.016 27.9969V25.4285H115.863C116.396 25.4285 116.662 25.1432 116.662 24.5724V20.2347H116.206C116.035 20.6152 115.768 20.9862 115.407 21.3477C115.065 21.6901 114.598 21.9755 114.008 22.2038C113.419 22.4321 112.677 22.5462 111.783 22.5462C110.718 22.5462 109.767 22.3084 108.93 21.8328C108.093 21.3572 107.436 20.6818 106.961 19.8066C106.485 18.9315 106.247 17.8946 106.247 16.696V8.22031H109.186V16.4677C109.186 17.6853 109.491 18.589 110.099 19.1788C110.708 19.7495 111.555 20.0349 112.639 20.0349C113.838 20.0349 114.798 19.6354 115.521 18.8363C116.263 18.0373 116.634 16.8767 116.634 15.3547V8.22031H119.573V25.1717C119.573 26.0279 119.316 26.7128 118.803 27.2264C118.308 27.7401 117.623 27.9969 116.748 27.9969H108.016Z" fill="#FEFFFF"/>
</g>
</g>
<defs>
<linearGradient id="paint0_linear_337_3632" x1="-1.79159" y1="-3.61174" x2="20.2248" y2="0.0146969" gradientUnits="userSpaceOnUse">
<stop stop-color="#5B42FF"/>
<stop offset="1" stop-color="#01CCD9"/>
</linearGradient>
<clipPath id="clip0_337_3632">
<rect width="119.573" height="28" fill="white"/>
</clipPath>
</defs>
</svg>
