<svg width="24" height="24" viewBox="0 0 24 24" fill="none" xmlns="http://www.w3.org/2000/svg">
    <path
        d="M20 0C17.7908 0 16 1.79086 16 4C16 6.20914 14.2091 8.00002 12 8.00002H11.4285C9.53502 8.00002 7.99999 9.53505 7.99999 11.4286C7.99999 13.3221 6.46495 14.8571 4.5714 14.8571C2.67785 14.8571 1.14283 13.3221 1.14283 11.4286C1.14283 9.53505 2.67785 8.00002 4.5714 8.00002C6.46495 8.00002 7.99999 6.46498 7.99999 4.57143V4C7.99999 1.79086 6.20911 0 3.99997 0C1.79083 0 -3.05176e-05 1.79086 -3.05176e-05 4V20C-3.05176e-05 22.2092 1.79083 24 3.99997 24C6.20911 24 7.99999 22.2092 7.99999 20C7.99999 17.7909 9.79081 16 12 16C14.2091 16 16 17.7909 16 20C16 22.2092 17.7908 24 20 24C22.2091 24 24 22.2092 24 20C24 17.7909 22.2091 16 20 16C17.7908 16 16 14.2092 16 12C16 9.79089 17.7908 8.00002 20 8.00002C22.2091 8.00002 24 6.20914 24 4.00001C24 1.79087 22.2091 0 20 0Z"
        fill="url(#paint0_linear_301_26724)" />
    <defs>
        <linearGradient id="paint0_linear_301_26724" x1="-1.78924" y1="-3.60697" x2="20.198"
            y2="0.0146775" gradientUnits="userSpaceOnUse">
            <stop stop-color="#5B42FF" />
            <stop offset="1" stop-color="#01CCD9" />
        </linearGradient>
    </defs>
</svg>
    